<?xml version="1.0" encoding="utf-8"?>
<!-- Generator: Adobe Illustrator 18.1.0, SVG Export Plug-In . SVG Version: 6.00 Build 0)  -->
<svg version="1.1" id="Layer_1" xmlns="http://www.w3.org/2000/svg" xmlns:xlink="http://www.w3.org/1999/xlink" x="0px" y="0px"
	 width="266.091px" height="56px" viewBox="0 0 266.091 56" enable-background="new 0 0 266.091 56" xml:space="preserve">
<g>
	<line fill="none" stroke="#6E6E71" stroke-miterlimit="10" x1="53.654" y1="0" x2="53.654" y2="56"/>
	<g>
		<path fill="#FFFFFF" d="M88.54,24.981c0-1.465,0.225-2.832,0.675-4.102s1.1-2.378,1.948-3.325s1.869-1.692,3.06-2.234
			s2.505-0.813,3.94-0.813c1.182,0,2.202,0.161,3.062,0.483s1.584,0.698,2.175,1.128s1.052,0.854,1.384,1.274
			s0.557,0.728,0.674,0.923l-1.084,0.762c-0.117-0.156-0.313-0.413-0.586-0.769s-0.654-0.713-1.143-1.069s-1.091-0.676-1.809-0.959
			s-1.589-0.425-2.615-0.425c-1.279,0-2.424,0.237-3.435,0.71s-1.865,1.121-2.563,1.941s-1.233,1.785-1.604,2.893
			s-0.557,2.302-0.557,3.582s0.19,2.473,0.571,3.582s0.92,2.078,1.619,2.908s1.558,1.481,2.578,1.955s2.18,0.711,3.479,0.711
			c0.938,0,1.763-0.143,2.476-0.426s1.313-0.603,1.802-0.959s0.879-0.711,1.172-1.063s0.498-0.609,0.615-0.775l1.084,0.762
			c-0.117,0.195-0.342,0.502-0.674,0.922s-0.793,0.846-1.384,1.275s-1.316,0.805-2.175,1.127s-1.88,0.484-3.062,0.484
			c-1.436,0-2.749-0.267-3.94-0.799s-2.211-1.268-3.06-2.205s-1.498-2.045-1.948-3.324C88.765,27.876,88.54,26.485,88.54,24.981z"/>
		<path fill="#FFFFFF" d="M122.58,35V14.991h1.436v18.662h11.353V35H122.58z"/>
		<path fill="#FFFFFF" d="M150.863,25.01c0-1.465,0.248-2.837,0.746-4.116s1.188-2.393,2.066-3.34s1.924-1.692,3.135-2.234
			s2.539-0.813,3.984-0.813c1.436,0,2.758,0.271,3.969,0.813s2.256,1.287,3.135,2.234s1.568,2.063,2.066,3.347
			s0.746,2.654,0.746,4.109c0,1.484-0.248,2.861-0.746,4.13c-0.498,1.27-1.188,2.373-2.066,3.311s-1.924,1.678-3.135,2.22
			s-2.533,0.813-3.969,0.813s-2.762-0.271-3.978-0.813s-2.263-1.282-3.142-2.22s-1.568-2.041-2.066-3.311
			C151.111,27.872,150.863,26.495,150.863,25.01z M152.386,25.01c0,1.26,0.199,2.444,0.6,3.552s0.967,2.078,1.699,2.908
			s1.619,1.481,2.659,1.955s2.19,0.711,3.45,0.711s2.408-0.237,3.449-0.711c1.039-0.474,1.924-1.125,2.65-1.955
			c0.729-0.83,1.293-1.8,1.693-2.908s0.6-2.292,0.6-3.552s-0.199-2.449-0.6-3.567s-0.965-2.087-1.693-2.908
			c-0.727-0.82-1.611-1.472-2.65-1.956c-1.041-0.483-2.189-0.725-3.449-0.725s-2.41,0.242-3.45,0.725s-1.927,1.135-2.659,1.956
			s-1.299,1.79-1.699,2.908S152.386,23.75,152.386,25.01z"/>
		<path fill="#FFFFFF" d="M187.817,27.017V14.991h1.436V26.27c0,1.143,0.09,2.192,0.271,3.15c0.18,0.957,0.505,1.787,0.974,2.49
			s1.104,1.25,1.904,1.641s1.821,0.586,3.062,0.586s2.261-0.195,3.062-0.586s1.436-0.938,1.904-1.641s0.793-1.533,0.974-2.49
			c0.181-0.958,0.271-2.007,0.271-3.15V14.991h1.436v12.026c0,1.182-0.125,2.288-0.373,3.318c-0.25,1.03-0.67,1.927-1.26,2.688
			c-0.592,0.762-1.375,1.361-2.352,1.801s-2.197,0.66-3.662,0.66s-2.686-0.221-3.662-0.66s-1.761-1.039-2.352-1.801
			s-1.01-1.658-1.26-2.688C187.942,29.305,187.817,28.199,187.817,27.017z"/>
		<path fill="#FFFFFF" d="M221.11,35V14.991h5.459c1.64,0,3.142,0.195,4.508,0.586s2.544,0.991,3.534,1.802s1.762,1.846,2.313,3.105
			c0.552,1.26,0.827,2.759,0.827,4.497s-0.275,3.237-0.827,4.498c-0.551,1.26-1.322,2.299-2.313,3.119s-2.168,1.426-3.534,1.816
			S228.208,35,226.569,35H221.11z M222.545,33.652h4.321c1.416,0,2.7-0.176,3.853-0.527s2.139-0.886,2.959-1.604
			s1.45-1.623,1.89-2.717c0.439-1.094,0.659-2.368,0.659-3.823c0-1.465-0.225-2.737-0.674-3.816s-1.089-1.978-1.919-2.695
			s-1.834-1.252-3.011-1.604s-2.507-0.527-3.991-0.527h-4.087V33.652z"/>
	</g>
	<g>
		<path fill="#FFFFFF" d="M255.966,17.362h-1.943v-1.197h5.246v1.197h-1.935v4.806h-1.368V17.362z"/>
		<path fill="#FFFFFF" d="M260.134,16.166h1.286l1.566,2.817l1.53-2.817h1.295l0.279,6.003h-1.359l-0.17-3.924l-1.242,2.34h-0.702
			l-1.313-2.313l-0.153,3.897h-1.296L260.134,16.166z"/>
	</g>
	<g>
		<path fill="#5AC0A0" d="M3.66,25.168L3.66,25.168c0.006,0.006,2.172,1.877,5.489,1.834C7.09,27.002,5.19,26.318,3.66,25.168z"/>
		<defs>
			<filter id="Adobe_OpacityMaskFilter" filterUnits="userSpaceOnUse" x="0" y="25.168" width="9.148" height="8.516">
				<feColorMatrix  type="matrix" values="1 0 0 0 0  0 1 0 0 0  0 0 1 0 0  0 0 0 1 0"/>
			</filter>
		</defs>
		<mask maskUnits="userSpaceOnUse" x="0" y="25.168" width="9.148" height="8.516" id="SVGID_1_">
			<g filter="url(#Adobe_OpacityMaskFilter)">
				<linearGradient id="SVGID_2_" gradientUnits="userSpaceOnUse" x1="2.8154" y1="34.1211" x2="2.8154" y2="24.0098">
					<stop  offset="0" style="stop-color:#FFFFFF"/>
					<stop  offset="0.6828" style="stop-color:#000000"/>
				</linearGradient>
				<polygon fill="url(#SVGID_2_)" points="7.029,34.121 -3.083,34.121 -3.083,24.01 8.714,24.01 				"/>
			</g>
		</mask>
		<path opacity="0.6" mask="url(#SVGID_1_)" fill="#5BC1A2" d="M3.676,32.48c0-3.018,2.455-5.473,5.472-5.473v-0.006
			c-3.317,0.043-5.483-1.828-5.489-1.834C1.439,26.838,0,29.494,0,32.48c0,0.408,0.03,0.81,0.082,1.203H3.81
			C3.724,33.297,3.676,32.895,3.676,32.48z"/>
		<defs>
			<filter id="Adobe_OpacityMaskFilter_1_" filterUnits="userSpaceOnUse" x="9.242" y="16.789" width="9.055" height="8.379">
				<feColorMatrix  type="matrix" values="1 0 0 0 0  0 1 0 0 0  0 0 1 0 0  0 0 0 1 0"/>
			</filter>
		</defs>
		<mask maskUnits="userSpaceOnUse" x="9.242" y="16.789" width="9.055" height="8.379" id="SVGID_3_">
			<g filter="url(#Adobe_OpacityMaskFilter_1_)">
				<linearGradient id="SVGID_4_" gradientUnits="userSpaceOnUse" x1="15.2349" y1="16.3404" x2="16.4864" y2="28.248">
					<stop  offset="0" style="stop-color:#FFFFFF"/>
					<stop  offset="0.5119" style="stop-color:#000000;stop-opacity:0.6"/>
				</linearGradient>
				<polygon fill="url(#SVGID_4_)" points="18.827,28.002 9.72,23.625 12.322,16.646 21.547,16.646 				"/>
			</g>
		</mask>
		<path opacity="0.7" mask="url(#SVGID_3_)" fill="#5BC1A2" d="M14.621,17.854c0,2.986-2.406,5.42-5.379,5.471v0.01
			c3.209-0.003,5.388,1.825,5.396,1.834c2.22-1.672,3.659-4.328,3.659-7.314c0-0.36-0.023-0.715-0.064-1.064h-3.716
			C14.585,17.133,14.621,17.489,14.621,17.854z"/>
		<path fill="#5AC0A1" d="M14.638,25.168L14.638,25.168c-0.008-0.009-2.187-1.837-5.396-1.834v-0.01
			c-0.032,0-0.062,0.002-0.093,0.002c-3.017,0-5.472-2.455-5.472-5.473s2.455-5.473,5.472-5.473c2.653,0,4.87,1.898,5.368,4.408
			h3.716c-0.53-4.544-4.401-8.083-9.084-8.083C4.104,8.706,0,12.811,0,17.854c0,2.986,1.439,5.643,3.66,7.314
			c1.41,1.061,3.135,1.723,5.007,1.82H8.665c0,0,0.01,0,0.022,0c0.09,0.005,0.179,0.008,0.269,0.01
			c0.625,0.033,2.146,0.201,3.354,1.014c1.415,0.986,2.312,2.609,2.312,4.469c0,3.018-2.456,5.472-5.473,5.472
			c-2.604,0-4.787-1.827-5.338-4.268H0.082c0.592,4.477,4.431,7.944,9.067,7.944c5.044,0,9.148-4.104,9.148-9.147
			C18.296,29.494,16.858,26.838,14.638,25.168z"/>
	</g>
</g>
</svg>
