<?xml version="1.0" encoding="utf-8"?>
<!-- Generator: Adobe Illustrator 18.1.0, SVG Export Plug-In . SVG Version: 6.00 Build 0)  -->
<svg version="1.1" id="Layer_1" xmlns="http://www.w3.org/2000/svg" xmlns:xlink="http://www.w3.org/1999/xlink" x="0px" y="0px"
	 width="49.762px" height="89.541px" viewBox="0 0 49.762 89.541" enable-background="new 0 0 49.762 89.541" xml:space="preserve">
<g>
	<path fill="#5AC0A0" d="M9.952,44.771L9.952,44.771c0.017,0.018,5.909,5.106,14.929,4.991
		C19.284,49.762,14.113,47.902,9.952,44.771z"/>
	<defs>
		<filter id="Adobe_OpacityMaskFilter" filterUnits="userSpaceOnUse" x="0" y="44.771" width="24.881" height="23.165">
			<feColorMatrix  type="matrix" values="1 0 0 0 0  0 1 0 0 0  0 0 1 0 0  0 0 0 1 0"/>
		</filter>
	</defs>
	<mask maskUnits="userSpaceOnUse" x="0" y="44.771" width="24.881" height="23.165" id="SVGID_1_">
		<g filter="url(#Adobe_OpacityMaskFilter)">
			<linearGradient id="SVGID_2_" gradientUnits="userSpaceOnUse" x1="7.658" y1="69.126" x2="7.658" y2="41.6221">
				<stop  offset="0" style="stop-color:#FFFFFF"/>
				<stop  offset="0.6828" style="stop-color:#000000"/>
			</linearGradient>
			<polygon fill="url(#SVGID_2_)" points="19.118,69.126 -8.386,69.126 -8.386,41.622 23.702,41.622 			"/>
		</g>
	</mask>
	<path opacity="0.6" mask="url(#SVGID_1_)" fill="#B9B9BA" d="M9.998,64.661c0-8.206,6.677-14.884,14.883-14.884v-0.016
		c-9.021,0.115-14.912-4.974-14.93-4.99C3.913,49.315,0,56.541,0,64.661c0,1.111,0.081,2.202,0.223,3.275h10.142
		C10.127,66.882,9.998,65.787,9.998,64.661z"/>
	<defs>
		<filter id="Adobe_OpacityMaskFilter_1_" filterUnits="userSpaceOnUse" x="25.133" y="21.983" width="24.628" height="22.786">
			<feColorMatrix  type="matrix" values="1 0 0 0 0  0 1 0 0 0  0 0 1 0 0  0 0 0 1 0"/>
		</filter>
	</defs>
	<mask maskUnits="userSpaceOnUse" x="25.133" y="21.983" width="24.628" height="22.786" id="SVGID_3_">
		<g filter="url(#Adobe_OpacityMaskFilter_1_)">
			<linearGradient id="SVGID_4_" gradientUnits="userSpaceOnUse" x1="41.4346" y1="20.765" x2="44.8382" y2="53.1486">
				<stop  offset="0" style="stop-color:#FFFFFF"/>
				<stop  offset="0.5119" style="stop-color:#000000;stop-opacity:0.6"/>
			</linearGradient>
			<polygon fill="url(#SVGID_4_)" points="51.205,52.479 26.436,40.577 33.513,21.598 58.604,21.598 			"/>
		</g>
	</mask>
	<path opacity="0.7" mask="url(#SVGID_3_)" fill="#B9B9BA" d="M39.765,24.881c0,8.121-6.541,14.74-14.631,14.877v0.024
		c8.73-0.005,14.654,4.968,14.677,4.987c6.039-4.543,9.951-11.768,9.951-19.889c0-0.98-0.063-1.947-0.174-2.897H39.48
		C39.665,22.921,39.765,23.889,39.765,24.881z"/>
	<path fill="#B9B9BA" d="M39.81,44.771L39.81,44.771c-0.022-0.021-5.947-4.993-14.677-4.988v-0.024
		c-0.085,0.001-0.168,0.006-0.252,0.006c-8.207,0-14.883-6.678-14.883-14.883c0-8.207,6.677-14.884,14.883-14.884
		c7.215,0,13.247,5.161,14.599,11.986h10.108C48.147,9.625,37.62,0,24.881,0C11.162,0,0,11.161,0,24.881
		c0,8.121,3.914,15.346,9.952,19.89c3.834,2.886,8.528,4.687,13.619,4.952l-0.001,0.004c0,0,0.023,0,0.059,0
		c0.242,0.012,0.486,0.02,0.729,0.023c1.701,0.093,5.836,0.547,9.121,2.758c3.848,2.683,6.286,7.1,6.286,12.153
		c0,8.207-6.677,14.884-14.884,14.884c-7.082,0-13.02-4.973-14.516-11.608H0.223c1.609,12.177,12.05,21.604,24.658,21.604
		c13.719,0,24.881-11.16,24.881-24.88C49.762,56.539,45.849,49.314,39.81,44.771z"/>
</g>
</svg>
